<?xml version="1.0" encoding="utf-8"?>
<!-- Generator: Adobe Illustrator 26.4.1, SVG Export Plug-In . SVG Version: 6.00 Build 0)  -->
<svg version="1.1" id="Layer_1" xmlns="http://www.w3.org/2000/svg" xmlns:xlink="http://www.w3.org/1999/xlink" x="0px" y="0px"
	 viewBox="0 0 870 870" style="enable-background:new 0 0 870 870;" xml:space="preserve">
<path d="M409.5,43.6c-2.2,0.2-9.2,0.9-15.5,1.5c-79,7.4-158.3,42.2-220,96.5C49.7,250.9,7.7,426.5,68.9,581.6
	C118.2,706.8,231.9,800,364.4,824c38.4,6.9,87.8,7.9,125.1,2.4C632,805.6,751.1,710.2,802.4,575.7c19.7-51.4,28.4-109.8,24.6-164.7
	c-6.6-94.7-44.6-180.6-109.9-248.2C653.2,96.6,571.5,56.5,477,45C468.4,43.9,416.8,42.9,409.5,43.6z M289.2,148.3
	c9.4,4.2,14.9,12.9,11.4,18.2c-1.5,2.3-1.7,2.3-5.1,1c-8.7-3.7-30,0-46.1,8c-22.6,11.3-44,35.3-59.1,66.6
	c-10.5,21.5-13,32.1-11.9,49.4c1,18.3,7.1,37,19.7,61.2c12.6,24.3,35,58.4,44.9,68.3c24.9,24.9,63,31.1,116.5,18.9
	c14-3.2,39.3-10.8,46-13.8c22.5-10.3,37.2-33.8,43.1-68.6c3.6-21.3,2.8-54.2-1.7-70.6c-9.5-34.9-41.5-61.3-82.9-68.5
	c-26.2-4.5-46.8,5.2-62.5,29.4c-10.5,16.3-16.4,32.5-16.5,44.8c0,6.7,3.5,23.9,6.6,32c5.9,15.8,18.6,37.3,26.6,45.3
	c15,14.8,42.1,15.5,69.3,1.9c19.7-9.9,29.3-28.2,28.2-53.8c-0.8-21.5-6.7-28.6-28.4-34c-5-1.3-5.4-1.3-11,1.6
	c-7.4,3.8-12.2,10.1-10.7,14.1c0.9,2.8,1.2,2.9,15.6,6.8c11.1,3,19.9,13.1,18.4,21.1c-1.6,8.1-14,16.9-28.3,19.9
	c-19.2,4-34.6-8.5-43.9-35.8c-3.5-10.1-3.9-16-2-23.7c2.2-8.7,6.8-15.9,14.6-23.3c11.4-10.8,26-17,40.5-17
	c28.8-0.1,48.3,18.5,54.1,51.4c2.4,14,1.5,38.9-2,52.2c-3.5,13.4-6.6,18.7-17.1,29.2c-10,10-19.1,15.8-33.4,21.1
	c-13.9,5.2-23.4,6.7-38.5,6.1c-15.5-0.6-25.2-2.9-37.6-8.8c-32.8-15.6-49.1-45.2-50.7-91.6c-1.7-52,14.5-86.3,49.9-105.2
	c18.4-9.9,37.5-14.1,66.3-14.8c21.9-0.6,27.8,0.3,40.9,6.1c14.1,6.2,32.1,22.4,42.5,38.3c13.8,20.9,26.4,54.8,30.2,81.1
	c1.7,12.3,0.7,39.4-2,50c-5.1,20.4-14.5,38.7-30.3,59c-11.4,14.7-29.4,32.5-39.9,39.4c-11.1,7.4-28.6,15.8-42.3,20.3
	c-19.1,6.2-52.4,11.9-57,9.6c-1.2-0.5-6.6-1.7-12.1-2.5c-27-4.1-58-17.8-73.8-32.6c-11.8-11-32.8-37-33.1-40.9
	c-0.1-0.9-2.7-5.4-5.7-10.1c-8.2-12.5-18.4-31.6-21.4-40.1c-0.8-2.3-3.3-13.4-5.5-24.8c-6.3-32.3-7.5-62.3-3.5-89.8
	c3.7-25,6.7-31.7,23.2-51.4c11.2-13.3,27.2-25.4,48.6-36.9C257.6,147.5,277,142.9,289.2,148.3z M699.2,237.9
	c26.1,6.7,48.2,29.3,63.5,65.1c10.7,24.9,14.4,52.1,10.2,73.5c-6.9,34.5-34.3,74-70,100.7c-32.8,24.5-59.6,34.3-77.5,28.2
	c-10.6-3.5-16.4-10.1-43.9-49.4c-9.8-14-20.9-29.6-24.5-34.5c-8.7-11.7-11.3-16.3-14.5-25.9c-6.4-19.1-1.4-40.1,12-51.1
	c8.1-6.7,15.4-8.1,22.5-4.5c16.1,8.2,41.1,51.5,41.4,71.7v5.5l3.6-3.9c1.9-2.2,9.9-11.1,17.6-19.9c24.1-27.3,42.6-41.4,54.4-41.4
	c3.6,0,8.6,3.4,10.6,7.2c1.2,2.3,1.7,5.4,1.6,10c-0.2,13.1-12.3,42.6-27.6,67.8c-3.2,5.2-6.8,11-7.9,12.9l-2,3.3l2.4-0.7
	c5.6-1.7,19.5-8.1,27.6-12.7c9.8-5.5,21.4-16.2,29.2-26.8c9.9-13.3,15.9-29,18.2-47.8c1.6-12.7,0.5-21-5.2-37.6
	c-10.4-30.4-28.7-57.5-44.2-65c-5.3-2.6-6.4-2.8-14.5-2.4c-5.2,0.3-11.7,1.4-16.2,2.8c-10.8,3.4-35.4,16.1-50.9,26.4
	c-7.4,4.8-14.6,8.8-16,8.9c-2.2,0.2-2.6-0.3-2.9-3c-1-10,16.3-31.6,34.7-43.5C650.7,239.1,680.4,233.1,699.2,237.9z M228.9,532.4
	c0.6,0.8,1.7,3.8,2.3,6.9c1.6,7.3-0.2,17.2-4.9,26.9l-3.5,7.3l2.2,1.5c11.4,7.7,55.5,33.4,77,44.8c25,13.2,58.8,27.9,81,35.1
	c27.3,9,43.1,11.6,65.5,10.8c52.8-2,101.8-15.2,151.9-41c15.4-8,54.4-30.3,56.9-32.6c0.4-0.5,0.3-3.8-0.3-7.4
	c-1.2-7.8-0.5-14,2.1-17l1.9-2.2l13.3,13.7l13.2,13.6l6.2,1.2c9.7,1.9,10.6,4.6,2.9,8.1c-5.7,2.5-16,3.4-23.8,2l-6.4-1.1L645,624.3
	c-35.2,34.9-59.7,54.4-91.3,72.6c-36,20.7-68.4,29.6-108.7,29.5c-26.8,0-46-3.2-71-11.9c-15.6-5.5-34.5-15.4-40.8-21.5
	c-1.9-1.8-3-2.1-5.9-1.5c-9.4,1.7-37.8,15.3-65.8,31.4c-18.5,10.6-22.9,12-30.9,9.7c-9.6-2.8-14.8-11.1-15-23.7
	c-0.1-7.2,0.2-8.2,4.8-17.5c4.1-8.1,6.3-11.3,13.5-18.4c12.5-12.6,28.2-22.5,38-23.9l4.6-0.6l-12.5-8.6
	c-24.8-17.1-47.2-37.3-54.5-49.2c-2.7-4.4-3.3-4.8-6-4.2c-1.6,0.3-8,0.8-14.1,1.2c-16.3,0.8-29.1-1.8-30.8-6.3
	c-1.2-3.1,2.5-5.1,14.8-8.3c6.5-1.7,14.7-4.5,18.3-6.3c9.2-4.5,18.8-13.8,24.7-23.9c2.7-4.6,5.6-9.2,6.4-10.2
	C224.6,530.6,227.3,530.5,228.9,532.4z"/>
</svg>
