<svg width="60" height="60" viewBox="0 0 60 60" fill="none" xmlns="http://www.w3.org/2000/svg">
<rect width="60" height="60" rx="30" fill="#AA4BF1"/>
<path d="M33.4125 37.583C32.6153 37.583 31.9444 37.3108 31.4 36.7663C30.8556 36.2219 30.5833 35.5511 30.5833 34.7538C30.5833 33.9566 30.8556 33.2858 31.4 32.7413C31.9444 32.1969 32.6153 31.9247 33.4125 31.9247C34.2097 31.9247 34.8806 32.1969 35.425 32.7413C35.9694 33.2858 36.2417 33.9566 36.2417 34.7538C36.2417 35.5511 35.9694 36.2219 35.425 36.7663C34.8806 37.3108 34.2097 37.583 33.4125 37.583ZM21.25 41.6663C20.7833 41.6663 20.375 41.4913 20.025 41.1413C19.675 40.7913 19.5 40.383 19.5 39.9163V21.833C19.5 21.3663 19.675 20.958 20.025 20.608C20.375 20.258 20.7833 20.083 21.25 20.083H23.1458V18.333H25.0417V20.083H34.9583V18.333H36.8542V20.083H38.75C39.2167 20.083 39.625 20.258 39.975 20.608C40.325 20.958 40.5 21.3663 40.5 21.833V39.9163C40.5 40.383 40.325 40.7913 39.975 41.1413C39.625 41.4913 39.2167 41.6663 38.75 41.6663H21.25ZM21.25 39.9163H38.75V27.3747H21.25V39.9163ZM21.25 25.6247H38.75V21.833H21.25V25.6247ZM21.25 25.6247V21.833V25.6247Z" fill="white"/>
</svg>
