<svg width="60" height="60" viewBox="0 0 60 60" fill="none" xmlns="http://www.w3.org/2000/svg">
<rect width="60" height="60" rx="30" fill="#F14BE5"/>
<path d="M33.5 39.3337C30.8945 39.3337 28.6875 38.4295 26.8792 36.6212C25.0709 34.8128 24.1667 32.6059 24.1667 30.0003C24.1667 27.3948 25.0709 25.1878 26.8792 23.3795C28.6875 21.5712 30.8945 20.667 33.5 20.667C36.1056 20.667 38.3125 21.5712 40.1209 23.3795C41.9292 25.1878 42.8334 27.3948 42.8334 30.0003C42.8334 32.6059 41.9292 34.8128 40.1209 36.6212C38.3125 38.4295 36.1056 39.3337 33.5 39.3337ZM24.575 38.9837C22.3778 38.7114 20.5938 37.7052 19.2229 35.9649C17.8521 34.2246 17.1667 32.2364 17.1667 30.0003C17.1667 27.7642 17.8521 25.776 19.2229 24.0357C20.5938 22.2955 22.3778 21.2892 24.575 21.017V22.7087C22.8639 23.0198 21.4931 23.8705 20.4625 25.2607C19.432 26.651 18.9167 28.2309 18.9167 30.0003C18.9167 31.7698 19.432 33.3496 20.4625 34.7399C21.4931 36.1302 22.8639 36.9809 24.575 37.292V38.9837ZM33.5 37.5837C35.5806 37.5837 37.3646 36.8399 38.8521 35.3524C40.3396 33.8649 41.0834 32.0809 41.0834 30.0003C41.0834 27.9198 40.3396 26.1357 38.8521 24.6482C37.3646 23.1607 35.5806 22.417 33.5 22.417C31.4195 22.417 29.6354 23.1607 28.1479 24.6482C26.6604 26.1357 25.9167 27.9198 25.9167 30.0003C25.9167 32.0809 26.6604 33.8649 28.1479 35.3524C29.6354 36.8399 31.4195 37.5837 33.5 37.5837Z" fill="white"/>
</svg>
