<svg width="60" height="60" viewBox="0 0 60 60" fill="none" xmlns="http://www.w3.org/2000/svg">
<rect width="60" height="60" rx="30" fill="#00B1F0"/>
<path d="M39.3625 35.1042L37.9042 33.6459C38.8375 32.6542 39.5521 31.6383 40.0479 30.598C40.5438 29.5577 40.7917 28.2792 40.7917 26.7626C40.7917 25.2459 40.5438 23.9674 40.0479 22.9271C39.5521 21.8869 38.8375 20.8709 37.9042 19.8792L39.3625 18.4209C40.4514 19.5487 41.3021 20.7785 41.9146 22.1105C42.5271 23.4424 42.8334 24.9931 42.8334 26.7626C42.8334 28.532 42.5271 30.0827 41.9146 31.4146C41.3021 32.7466 40.4514 33.9765 39.3625 35.1042ZM35.3084 30.9626L33.85 29.5042C34.2 29.1153 34.4722 28.7021 34.6667 28.2646C34.8611 27.8271 34.9584 27.3265 34.9584 26.7626C34.9584 26.1987 34.8611 25.698 34.6667 25.2605C34.4722 24.823 34.2 24.4098 33.85 24.0209L35.3084 22.5626C35.8139 23.107 36.2222 23.7438 36.5334 24.473C36.8445 25.2021 37 25.9653 37 26.7626C37 27.5598 36.8445 28.323 36.5334 29.0521C36.2222 29.7813 35.8139 30.4181 35.3084 30.9626ZM26.5 31.1376C25.2167 31.1376 24.1667 30.7292 23.35 29.9126C22.5334 29.0959 22.125 28.0459 22.125 26.7626C22.125 25.4792 22.5334 24.4292 23.35 23.6126C24.1667 22.7959 25.2167 22.3876 26.5 22.3876C27.7834 22.3876 28.8334 22.7959 29.65 23.6126C30.4667 24.4292 30.875 25.4792 30.875 26.7626C30.875 28.0459 30.4667 29.0959 29.65 29.9126C28.8334 30.7292 27.7834 31.1376 26.5 31.1376ZM17.1667 40.5001V37.7584C17.1667 37.0195 17.3514 36.3924 17.7209 35.8771C18.0903 35.3619 18.5667 34.9584 19.15 34.6667C20.1417 34.1612 21.3132 33.7431 22.6646 33.4126C24.016 33.082 25.2945 32.9167 26.5 32.9167C27.7056 32.9167 28.9792 33.082 30.3209 33.4126C31.6625 33.7431 32.8292 34.1612 33.8209 34.6667C34.4042 34.9584 34.8854 35.3619 35.2646 35.8771C35.6438 36.3924 35.8334 37.0195 35.8334 37.7584V40.5001H17.1667ZM18.9167 38.7501H34.0834V37.7584C34.0834 37.4473 34.0007 37.1605 33.8354 36.898C33.6702 36.6355 33.432 36.4167 33.1209 36.2417C32.1875 35.7167 31.1278 35.323 29.9417 35.0605C28.7556 34.798 27.6084 34.6667 26.5 34.6667C25.3917 34.6667 24.2396 34.8077 23.0438 35.0896C21.8479 35.3716 20.7834 35.7556 19.85 36.2417C19.5778 36.3778 19.3542 36.5869 19.1792 36.8688C19.0042 37.1508 18.9167 37.4473 18.9167 37.7584V38.7501ZM26.5 29.3876C27.2584 29.3876 27.8854 29.1396 28.3813 28.6438C28.8771 28.148 29.125 27.5209 29.125 26.7626C29.125 26.0042 28.8771 25.3771 28.3813 24.8813C27.8854 24.3855 27.2584 24.1376 26.5 24.1376C25.7417 24.1376 25.1146 24.3855 24.6188 24.8813C24.1229 25.3771 23.875 26.0042 23.875 26.7626C23.875 27.5209 24.1229 28.148 24.6188 28.6438C25.1146 29.1396 25.7417 29.3876 26.5 29.3876Z" fill="white"/>
</svg>
